<mxfile host="65bd71144e">
    <diagram id="bpYVQOLjNCqGvhwvtokx" name="Sida-1">
        <mxGraphModel dx="797" dy="976" grid="1" gridSize="10" guides="1" tooltips="1" connect="1" arrows="1" fold="1" page="0" pageScale="1" pageWidth="827" pageHeight="1169" background="#474747" math="0" shadow="0">
            <root>
                <mxCell id="0"/>
                <mxCell id="1" parent="0"/>
                <mxCell id="toSEzJaH4IEXtGupLxra-102" value="" style="shape=tableRow;horizontal=0;startSize=0;swimlaneHead=0;swimlaneBody=0;top=0;left=0;bottom=0;right=0;collapsible=0;dropTarget=0;fillColor=none;points=[[0,0.5],[1,0.5]];portConstraint=eastwest;" parent="1" vertex="1">
                    <mxGeometry x="100" y="970" width="180" height="30" as="geometry"/>
                </mxCell>
                <mxCell id="toSEzJaH4IEXtGupLxra-103" value="" style="shape=partialRectangle;html=1;whiteSpace=wrap;connectable=0;fillColor=none;top=0;left=0;bottom=0;right=0;overflow=hidden;" parent="toSEzJaH4IEXtGupLxra-102" vertex="1">
                    <mxGeometry width="40" height="30" as="geometry">
                        <mxRectangle width="40" height="30" as="alternateBounds"/>
                    </mxGeometry>
                </mxCell>
                <mxCell id="6qQ5tTS4VdAz7J_n0x5j-1" value="Bookings" style="rounded=1;whiteSpace=wrap;html=1;" parent="1" vertex="1">
                    <mxGeometry x="220" y="150" width="120" height="60" as="geometry"/>
                </mxCell>
                <mxCell id="6qQ5tTS4VdAz7J_n0x5j-2" value="Barbers" style="rounded=1;whiteSpace=wrap;html=1;" parent="1" vertex="1">
                    <mxGeometry x="620" y="540" width="120" height="60" as="geometry"/>
                </mxCell>
                <mxCell id="6qQ5tTS4VdAz7J_n0x5j-3" value="Services" style="rounded=1;whiteSpace=wrap;html=1;" parent="1" vertex="1">
                    <mxGeometry x="220" y="540" width="120" height="60" as="geometry"/>
                </mxCell>
                <mxCell id="6qQ5tTS4VdAz7J_n0x5j-4" value="Users" style="rounded=1;whiteSpace=wrap;html=1;" parent="1" vertex="1">
                    <mxGeometry x="620" y="150" width="120" height="60" as="geometry"/>
                </mxCell>
                <mxCell id="6qQ5tTS4VdAz7J_n0x5j-5" value="Roles" style="rounded=1;whiteSpace=wrap;html=1;" parent="1" vertex="1">
                    <mxGeometry x="620" y="400" width="120" height="60" as="geometry"/>
                </mxCell>
                <mxCell id="6qQ5tTS4VdAz7J_n0x5j-9" value="" style="edgeStyle=entityRelationEdgeStyle;fontSize=12;html=1;endArrow=ERoneToMany;rounded=0;exitX=0;exitY=0.5;exitDx=0;exitDy=0;entryX=1;entryY=0.5;entryDx=0;entryDy=0;" parent="1" source="6qQ5tTS4VdAz7J_n0x5j-4" target="6qQ5tTS4VdAz7J_n0x5j-1" edge="1">
                    <mxGeometry width="100" height="100" relative="1" as="geometry">
                        <mxPoint x="460" y="530" as="sourcePoint"/>
                        <mxPoint x="560" y="430" as="targetPoint"/>
                    </mxGeometry>
                </mxCell>
                <mxCell id="6qQ5tTS4VdAz7J_n0x5j-6" value="Makes" style="shape=rhombus;perimeter=rhombusPerimeter;whiteSpace=wrap;html=1;align=center;" parent="1" vertex="1">
                    <mxGeometry x="420" y="150" width="120" height="60" as="geometry"/>
                </mxCell>
                <mxCell id="6qQ5tTS4VdAz7J_n0x5j-10" value="" style="edgeStyle=entityRelationEdgeStyle;fontSize=12;html=1;endArrow=ERmany;startArrow=ERmany;rounded=0;entryX=1;entryY=0.5;entryDx=0;entryDy=0;exitX=0;exitY=0.5;exitDx=0;exitDy=0;" parent="1" source="6qQ5tTS4VdAz7J_n0x5j-2" target="6qQ5tTS4VdAz7J_n0x5j-3" edge="1">
                    <mxGeometry width="100" height="100" relative="1" as="geometry">
                        <mxPoint x="350" y="920" as="sourcePoint"/>
                        <mxPoint x="450" y="820" as="targetPoint"/>
                    </mxGeometry>
                </mxCell>
                <mxCell id="6qQ5tTS4VdAz7J_n0x5j-11" value="Has" style="shape=rhombus;perimeter=rhombusPerimeter;whiteSpace=wrap;html=1;align=center;" parent="1" vertex="1">
                    <mxGeometry x="414" y="540" width="120" height="60" as="geometry"/>
                </mxCell>
                <mxCell id="6qQ5tTS4VdAz7J_n0x5j-16" value="" style="fontSize=12;html=1;endArrow=ERoneToMany;rounded=0;strokeColor=default;entryX=0.5;entryY=1;entryDx=0;entryDy=0;movable=1;resizable=1;rotatable=1;deletable=1;editable=1;locked=0;connectable=1;exitX=0.5;exitY=0;exitDx=0;exitDy=0;startArrow=none;" parent="1" source="6qQ5tTS4VdAz7J_n0x5j-12" target="6qQ5tTS4VdAz7J_n0x5j-1" edge="1">
                    <mxGeometry width="100" height="100" relative="1" as="geometry">
                        <mxPoint x="130" y="480" as="sourcePoint"/>
                        <mxPoint x="230" y="380" as="targetPoint"/>
                    </mxGeometry>
                </mxCell>
                <mxCell id="6qQ5tTS4VdAz7J_n0x5j-17" value="" style="fontSize=12;html=1;endArrow=none;rounded=0;strokeColor=default;entryX=0.5;entryY=1;entryDx=0;entryDy=0;movable=1;resizable=1;rotatable=1;deletable=1;editable=1;locked=0;connectable=1;exitX=0.5;exitY=0;exitDx=0;exitDy=0;" parent="1" source="6qQ5tTS4VdAz7J_n0x5j-3" target="6qQ5tTS4VdAz7J_n0x5j-12" edge="1">
                    <mxGeometry width="100" height="100" relative="1" as="geometry">
                        <mxPoint x="280" y="470" as="sourcePoint"/>
                        <mxPoint x="280" y="310" as="targetPoint"/>
                    </mxGeometry>
                </mxCell>
                <mxCell id="6qQ5tTS4VdAz7J_n0x5j-12" value="Has" style="shape=rhombus;perimeter=rhombusPerimeter;whiteSpace=wrap;html=1;align=center;" parent="1" vertex="1">
                    <mxGeometry x="220" y="350" width="120" height="60" as="geometry"/>
                </mxCell>
                <mxCell id="6qQ5tTS4VdAz7J_n0x5j-20" value="" style="fontSize=12;html=1;endArrow=ERoneToMany;rounded=0;strokeColor=default;exitX=0.25;exitY=0;exitDx=0;exitDy=0;startArrow=none;entryX=1;entryY=1;entryDx=0;entryDy=0;" parent="1" source="6qQ5tTS4VdAz7J_n0x5j-21" target="6qQ5tTS4VdAz7J_n0x5j-1" edge="1">
                    <mxGeometry width="100" height="100" relative="1" as="geometry">
                        <mxPoint x="710" y="400" as="sourcePoint"/>
                        <mxPoint x="340" y="290" as="targetPoint"/>
                    </mxGeometry>
                </mxCell>
                <mxCell id="6qQ5tTS4VdAz7J_n0x5j-22" value="" style="fontSize=12;html=1;endArrow=none;rounded=0;strokeColor=default;exitX=0.25;exitY=0;exitDx=0;exitDy=0;entryX=0.675;entryY=0.85;entryDx=0;entryDy=0;entryPerimeter=0;" parent="1" source="6qQ5tTS4VdAz7J_n0x5j-2" target="6qQ5tTS4VdAz7J_n0x5j-21" edge="1">
                    <mxGeometry width="100" height="100" relative="1" as="geometry">
                        <mxPoint x="630" y="500" as="sourcePoint"/>
                        <mxPoint x="340" y="275" as="targetPoint"/>
                    </mxGeometry>
                </mxCell>
                <mxCell id="6qQ5tTS4VdAz7J_n0x5j-21" value="Has" style="shape=rhombus;perimeter=rhombusPerimeter;whiteSpace=wrap;html=1;align=center;" parent="1" vertex="1">
                    <mxGeometry x="440" y="350" width="120" height="60" as="geometry"/>
                </mxCell>
                <mxCell id="6qQ5tTS4VdAz7J_n0x5j-24" value="" style="fontSize=12;html=1;endArrow=ERmany;startArrow=ERmany;rounded=0;entryX=0.5;entryY=1;entryDx=0;entryDy=0;exitX=0.5;exitY=0;exitDx=0;exitDy=0;" parent="1" source="6qQ5tTS4VdAz7J_n0x5j-5" target="6qQ5tTS4VdAz7J_n0x5j-4" edge="1">
                    <mxGeometry width="100" height="100" relative="1" as="geometry">
                        <mxPoint x="630" y="540" as="sourcePoint"/>
                        <mxPoint x="350" y="540" as="targetPoint"/>
                    </mxGeometry>
                </mxCell>
                <mxCell id="6qQ5tTS4VdAz7J_n0x5j-23" value="Has" style="shape=rhombus;perimeter=rhombusPerimeter;whiteSpace=wrap;html=1;align=center;" parent="1" vertex="1">
                    <mxGeometry x="620" y="280" width="120" height="60" as="geometry"/>
                </mxCell>
            </root>
        </mxGraphModel>
    </diagram>
</mxfile>